<svg xmlns="http://www.w3.org/2000/svg" viewBox="0 0 32 32">
  <rect width="32" height="32" rx="3" fill="#0a0d0a"/>
  <!-- corner brackets -->
  <path d="M3 8 L3 3 L8 3 M29 8 L29 3 L24 3 M3 24 L3 29 L8 29 M29 24 L29 29 L24 29"
        stroke="#7ba428" stroke-width="1.6" fill="none" stroke-linecap="square"/>
  <!-- outer dashed ring -->
  <circle cx="16" cy="16" r="11" fill="none" stroke="#7eea7a" stroke-width="0.8"
          stroke-dasharray="1.6 2" opacity="0.7"/>
  <!-- inner ring -->
  <circle cx="16" cy="16" r="6.5" fill="none" stroke="#7eea7a" stroke-width="1" opacity="0.9"/>
  <!-- crosshair ticks -->
  <line x1="16" y1="5"  x2="16" y2="8.5" stroke="#7eea7a" stroke-width="1.4"/>
  <line x1="16" y1="23.5" x2="16" y2="27" stroke="#7eea7a" stroke-width="1.4"/>
  <line x1="5"  y1="16" x2="8.5" y2="16" stroke="#7eea7a" stroke-width="1.4"/>
  <line x1="23.5" y1="16" x2="27" y2="16" stroke="#7eea7a" stroke-width="1.4"/>
  <!-- radar sweep -->
  <g style="transform-origin:16px 16px;animation:sweep 2.4s linear infinite">
    <defs>
      <linearGradient id="sweepGrad" x1="16" y1="16" x2="16" y2="5" gradientUnits="userSpaceOnUse">
        <stop offset="0%"  stop-color="#ff4040" stop-opacity="0"/>
        <stop offset="60%" stop-color="#ff4040" stop-opacity="0.55"/>
        <stop offset="100%" stop-color="#ff4040" stop-opacity="1"/>
      </linearGradient>
    </defs>
    <line x1="16" y1="16" x2="16" y2="5" stroke="url(#sweepGrad)" stroke-width="1.6" stroke-linecap="round"/>
  </g>
  <!-- pulsing center dot -->
  <circle cx="16" cy="16" r="2.4" fill="#7eea7a">
    <animate attributeName="opacity" values="1;0.35;1" dur="1.4s" repeatCount="indefinite"/>
    <animate attributeName="r" values="2.2;3.2;2.2" dur="1.4s" repeatCount="indefinite"/>
  </circle>
  <style>@keyframes sweep{to{transform:rotate(360deg)}}</style>
</svg>
